<?xml version="1.0" encoding="UTF-8"?>
<svg xmlns="http://www.w3.org/2000/svg" xmlns:xlink="http://www.w3.org/1999/xlink" width="px" height="px" viewBox="0 0 245 334" version="1.1">
<g id="surface1">
<path style=" stroke:none;fill-rule:nonzero;fill:rgb(94.509804%,65.098041%,29.019609%);fill-opacity:1;" d="M 134.5 0 L 245 0 L 245 334 L 0 334 L 0 134.300781 Z M 134.5 0 "/>
<path style=" stroke:none;fill-rule:nonzero;fill:rgb(100%,100%,100%);fill-opacity:1;" d="M 24.101562 282.828125 L 220.601562 282.828125 L 220.601562 293.3125 L 24.101562 293.3125 Z M 24.101562 237.644531 L 220.601562 237.644531 L 220.601562 248.128906 L 24.101562 248.128906 Z M 24.101562 147.679688 L 220.601562 147.679688 L 220.601562 158.164062 L 24.101562 158.164062 Z M 24.101562 192.460938 L 220.601562 192.460938 L 220.601562 202.945312 L 24.101562 202.945312 Z M 134.25 112.480469 L 220.648438 112.480469 L 220.648438 101.996094 L 134.25 101.996094 M 134.25 67.5 L 220.648438 67.5 L 220.648438 57.066406 L 134.25 57.066406 "/>
<path style=" stroke:none;fill-rule:nonzero;fill:rgb(82.352942%,82.745099%,83.137256%);fill-opacity:1;" d="M 134.5 0 L 0 134.300781 L 134.5 134.300781 Z M 134.5 0 "/>
</g>
</svg>
