<?xml version="1.0" encoding="UTF-8"?>
<svg xmlns="http://www.w3.org/2000/svg" xmlns:xlink="http://www.w3.org/1999/xlink" width="px" height="px" viewBox="0 0 244 294" version="1.1">
<g id="surface1">
<path style=" stroke:none;fill-rule:nonzero;fill:rgb(82.352942%,82.745099%,83.137256%);fill-opacity:1;" d="M 35.378906 63.992188 C 36.277344 62.496094 36.925781 61.398438 37.027344 61.148438 C 43.625 49.773438 47.820312 43.390625 47.820312 43.390625 C 50.820312 38.800781 52.566406 36.40625 53.367188 35.410156 C 55.367188 32.816406 57.464844 30.320312 58.863281 28.773438 C 60.011719 27.527344 65.058594 22.488281 75.753906 16.703125 C 82.050781 13.308594 86.945312 11.714844 96.789062 8.570312 C 103.734375 6.324219 111.53125 3.882812 122.175781 2.035156 C 127.671875 1.089844 133.617188 0.0898438 141.613281 0.0898438 C 147.859375 0.0898438 152.90625 0.0898438 158.503906 1.835938 C 165.347656 3.980469 169.945312 7.773438 176.941406 14.507812 C 190.28125 27.328125 199.578125 38.601562 202.726562 42.441406 C 213.46875 55.511719 224.164062 69.777344 224.164062 69.777344 C 224.710938 71.175781 225.261719 72.671875 225.761719 74.117188 C 227.359375 78.707031 230.257812 87.9375 231.90625 99.859375 C 231.90625 99.910156 231.957031 100.058594 231.957031 100.058594 C 231.957031 100.058594 223.113281 94.871094 215.617188 90.382812 C 207.574219 85.542969 201.328125 82.550781 194.378906 79.308594 C 192.53125 78.410156 183.988281 74.417969 172.34375 69.976562 C 161.101562 65.738281 157.953125 65.238281 156.054688 65.039062 C 154.207031 64.839844 147.210938 64.140625 138.414062 66.238281 C 137.265625 66.488281 135.515625 66.984375 129.871094 69.03125 C 121.074219 72.222656 117.828125 73.871094 109.234375 77.359375 C 95.492188 82.898438 91.492188 83.597656 89.792969 83.894531 C 86.996094 84.34375 82.449219 85.042969 76.703125 84.496094 C 74.753906 84.296875 73.453125 83.996094 56.464844 77.359375 L 56.414062 77.359375 C 47.820312 72.820312 43.523438 71.476562 34.929688 66.886719 C 34.777344 66.785156 34.429688 66.636719 33.980469 66.386719 C 34.378906 65.738281 34.828125 64.941406 35.378906 63.992188 "/>
<path style=" stroke:none;fill-rule:nonzero;fill:rgb(74.117649%,74.509805%,75.294119%);fill-opacity:1;" d="M 244 167.953125 C 243.699219 154.929688 241.703125 144.753906 239.851562 135.527344 C 239.351562 132.984375 239.203125 132.382812 238.351562 128.691406 C 238.105469 127.496094 237.304688 124.003906 235.753906 116.96875 C 234.804688 112.730469 233.507812 106.84375 231.957031 99.660156 C 231.90625 99.511719 231.859375 99.308594 231.808594 99.160156 C 230.109375 98.164062 227.558594 96.714844 224.511719 94.921875 C 210.71875 86.988281 206.324219 84.644531 204.472656 83.695312 C 192.183594 77.0625 183.6875 73.769531 166.699219 67.136719 C 163.148438 65.738281 157.351562 63.542969 149.707031 63.792969 C 147.558594 63.84375 145.0625 64.140625 140.761719 65.140625 C 132.367188 67.136719 127.273438 69.53125 119.277344 72.820312 C 112.28125 75.765625 103.835938 79.058594 93.84375 82 C 88.746094 83.496094 84.347656 84.59375 78.703125 84.195312 C 74.855469 83.945312 72.253906 83.097656 67.957031 81.703125 C 62.011719 79.753906 57.964844 77.761719 44.371094 70.875 C 41.675781 69.480469 38.277344 67.785156 34.378906 65.789062 C 34.277344 65.988281 34.078125 66.335938 33.828125 66.6875 C 33.679688 66.933594 33.578125 67.085938 33.378906 67.335938 C 33.128906 67.683594 32.929688 67.984375 32.78125 68.132812 C 32.480469 68.53125 32.480469 68.582031 32.332031 68.730469 C 31.980469 69.179688 31.78125 69.53125 31.480469 69.976562 C 31.429688 70.078125 30.980469 70.726562 30.679688 71.226562 C 30.179688 72.074219 29.832031 72.621094 29.132812 74.21875 C 28.78125 75.015625 28.382812 75.765625 27.984375 76.5625 C 26.785156 79.105469 26.183594 80.402344 25.734375 81.351562 C 24.984375 82.949219 23.785156 85.441406 22.335938 88.636719 C 20.6875 92.226562 20.789062 91.679688 18.1875 97.117188 C 15.640625 102.503906 12.492188 109.289062 8.996094 117.320312 C 8.996094 117.320312 9.84375 119.511719 13.792969 124.453125 C 20.789062 133.230469 24.285156 137.621094 30.179688 143.65625 C 35.777344 149.445312 38.625 152.335938 41.875 154.082031 C 47.472656 157.078125 52.519531 157.574219 56.714844 157.925781 C 75.851562 159.570312 87.546875 159.421875 87.546875 159.421875 C 87.546875 159.421875 109.082031 159.222656 127.570312 160.917969 C 130.320312 161.167969 135.917969 161.765625 141.0625 165.605469 C 143.3125 167.304688 144.660156 169 146.960938 171.941406 C 149.257812 174.886719 151.105469 177.679688 155.203125 184.863281 C 159.652344 192.644531 160.652344 194.9375 164 199.828125 C 167.148438 204.417969 168.894531 206.3125 171.445312 207.808594 C 173.941406 209.304688 176.542969 209.753906 180.390625 210.402344 C 182.4375 210.753906 188.933594 211.75 205.574219 208.359375 C 211.519531 207.160156 215.917969 205.964844 220.164062 204.765625 C 228.160156 202.570312 234.753906 200.476562 239.402344 198.878906 C 239.402344 198.878906 242.152344 192.34375 243.101562 185.011719 C 244.148438 176.28125 244 169.546875 244 167.953125 "/>
<path style=" stroke:none;fill-rule:nonzero;fill:rgb(65.882355%,66.274512%,67.450982%);fill-opacity:1;" d="M 216.21875 205.714844 C 207.421875 208.308594 200.777344 209.054688 195.128906 209.703125 C 194.53125 209.753906 188.535156 210.402344 180.789062 209.855469 C 177.492188 209.605469 176.042969 209.304688 174.59375 208.757812 C 171.292969 207.511719 168.847656 205.363281 165.796875 201.625 C 162.851562 198.03125 161.402344 195.488281 157.101562 188.003906 C 151.308594 177.878906 150.457031 176.53125 148.957031 174.386719 C 145.011719 168.699219 143.0625 165.804688 139.613281 163.660156 C 136.566406 161.816406 133.367188 160.867188 125.421875 159.96875 C 115.828125 158.871094 108.332031 158.871094 105.984375 158.871094 C 94.890625 158.921875 80.5 159.070312 65.757812 158.472656 C 62.5625 158.324219 58.414062 158.125 53.066406 156.828125 C 50.367188 156.179688 44.121094 154.53125 37.925781 150.492188 C 33.378906 147.546875 30.28125 143.707031 24.285156 136.175781 C 16.691406 126.648438 11.34375 119.914062 8.945312 116.917969 C 8.894531 117.019531 8.84375 117.167969 8.792969 117.269531 L 6.996094 126.847656 C 6.996094 126.898438 6.945312 127.195312 6.945312 127.246094 C 4.898438 138.269531 4.695312 139.167969 4.449219 140.714844 C 3 149.992188 1.648438 158.375 0.75 169.699219 C 0.25 175.582031 0.148438 180.523438 -0.101562 190.449219 C -0.25 196.585938 -0.25 199.976562 0.75 204.316406 C 1.5 207.660156 2.648438 211 5.296875 216.289062 C 6.894531 219.480469 10.59375 226.367188 21.535156 240.632812 C 27.78125 248.714844 32.679688 254.402344 33.929688 255.898438 C 39.824219 262.730469 45.222656 268.417969 49.621094 272.808594 C 49.621094 272.808594 55.414062 275.652344 63.109375 278.144531 C 87.796875 286.328125 90.59375 288.621094 104.4375 291.613281 C 114.429688 293.808594 118.976562 293.910156 120.824219 293.910156 C 128.320312 293.960938 133.96875 292.5625 141.761719 290.367188 C 153.707031 286.976562 172.492188 281.589844 191.183594 272.359375 C 198.179688 268.917969 202.527344 266.222656 207.023438 263.429688 C 212.820312 259.789062 214.46875 258.390625 215.417969 257.542969 C 219.015625 254.203125 221.714844 250.261719 224.761719 243.675781 C 228.460938 235.695312 229.859375 229.90625 232.058594 222.074219 C 233.65625 216.289062 236.15625 207.910156 239.652344 197.632812 C 239.800781 197.582031 232.058594 201.023438 216.21875 205.714844 "/>
</g>
</svg>
