<?xml version="1.0" encoding="UTF-8"?>
<svg xmlns="http://www.w3.org/2000/svg" xmlns:xlink="http://www.w3.org/1999/xlink" width="px" height="px" viewBox="0 0 212 330" version="1.1">
<g id="surface1">
<path style=" stroke:none;fill-rule:nonzero;fill:rgb(89.019608%,40.784314%,23.529412%);fill-opacity:1;" d="M 184.3125 0.0859375 C 184.3125 0.0859375 180.738281 5.742188 174.796875 17.007812 C 172.625 21.238281 168.503906 29.25 163.308594 38.492188 C 161.5 41.71875 160.898438 42.71875 158.8125 46.472656 C 156.117188 51.363281 155.1875 53.207031 151.320312 60.390625 C 150.753906 61.453125 151.113281 60.785156 144.828125 72.386719 C 138.785156 83.570312 138.863281 83.425781 137.835938 85.355469 C 134.113281 92.195312 133.863281 92.570312 131.839844 96.328125 C 129.203125 101.277344 129.042969 101.726562 126.847656 105.761719 C 124.519531 110.070312 124.394531 110.117188 121.316406 115.707031 C 120.703125 116.820312 118.105469 121.546875 114.855469 127.675781 C 113.003906 131.167969 112.554688 132.074219 110.359375 136.207031 C 108.746094 139.238281 107.441406 141.65625 106.363281 143.6875 C 101.175781 153.28125 92.550781 169.046875 86.882812 179.554688 C 79.101562 193.945312 79.660156 193.335938 71.4375 208.539062 C 65.363281 219.839844 56.941406 234.957031 56.941406 234.957031 C 56.839844 235.324219 56.660156 235.664062 56.40625 235.953125 C 54.765625 235.511719 53.097656 235.179688 51.414062 234.957031 C 46.265625 234.320312 41.042969 234.65625 36.019531 235.953125 C 32.519531 236.882812 29.144531 238.234375 25.972656 239.976562 C 22.753906 241.605469 19.734375 243.605469 16.984375 245.9375 C 14.382812 248.164062 12.035156 250.671875 9.988281 253.417969 C 8.082031 255.898438 6.410156 258.546875 4.996094 261.332031 C 1.972656 267.359375 0.277344 273.964844 0.0234375 280.699219 C -0.140625 286.335938 0.695312 291.957031 2.496094 297.300781 C 5.636719 306.648438 11.546875 314.824219 19.441406 320.742188 C 23.109375 323.488281 27.167969 325.671875 31.476562 327.226562 C 35.644531 328.683594 40 329.535156 44.410156 329.75 C 49.964844 330.234375 55.5625 329.730469 60.9375 328.253906 C 66.136719 326.757812 71.035156 324.378906 75.421875 321.222656 C 80.628906 317.464844 85.042969 312.71875 88.410156 307.257812 C 94.589844 297.453125 96.902344 285.710938 94.902344 274.300781 C 93.988281 269.496094 92.449219 264.832031 90.324219 260.425781 C 88.917969 257.484375 87.066406 254.777344 84.828125 252.402344 L 84.390625 251.960938 C 85.929688 249.632812 88.242188 246.027344 90.882812 241.429688 C 91.34375 240.632812 91.382812 240.589844 93.378906 236.941406 C 98.375 227.964844 99.042969 226.851562 100.871094 223.515625 C 102.699219 220.179688 103.988281 217.695312 105.367188 215.035156 C 114.246094 198.078125 119.027344 187.984375 127.910156 170.601562 C 128.785156 168.894531 130.34375 165.84375 132.367188 161.65625 C 133.234375 159.855469 134.488281 157.222656 138.359375 148.6875 C 141.445312 141.859375 142.996094 138.449219 144.851562 134.226562 C 146.652344 130.117188 146.476562 130.425781 150.847656 120.261719 C 155.097656 110.351562 155.15625 110.285156 156.386719 107.292969 C 158.382812 102.390625 159.789062 98.730469 161.847656 93.328125 C 163.808594 88.167969 165.121094 84.714844 166.839844 79.863281 C 168.515625 75.113281 169.679688 71.550781 171.335938 66.398438 C 173.050781 61.160156 173.902344 58.535156 174.832031 55.425781 C 176.546875 49.632812 177.648438 45.175781 178.328125 42.457031 C 179.039062 39.585938 180.15625 35.027344 181.324219 28.992188 C 182.285156 24.128906 182.917969 20.179688 183.269531 17.90625 C 183.46875 16.609375 183.605469 15.742188 183.769531 14.5 C 184.261719 10.847656 184.527344 7.171875 184.558594 3.492188 C 184.578125 0.25 184.3125 0.0859375 184.3125 0.0859375 M 47.757812 312.550781 C 30.996094 312.550781 17.40625 298.980469 17.40625 282.246094 C 17.40625 265.507812 30.996094 251.941406 47.757812 251.941406 C 64.519531 251.941406 78.105469 265.507812 78.105469 282.246094 C 78.105469 298.980469 64.519531 312.550781 47.757812 312.550781 "/>
<path style=" stroke:none;fill-rule:nonzero;fill:rgb(89.019608%,40.784314%,23.529412%);fill-opacity:1;" d="M 211.285156 273.890625 C 210.734375 270.285156 209.714844 266.765625 208.253906 263.417969 C 207.144531 260.964844 205.820312 258.613281 204.292969 256.394531 C 202.78125 254.109375 201.097656 251.941406 199.253906 249.914062 C 195.535156 245.871094 191.136719 242.511719 186.261719 239.976562 C 182.625 238.148438 178.761719 236.808594 174.773438 235.988281 C 171.335938 235.21875 166.710938 234.222656 160.785156 234.957031 C 159.097656 235.164062 157.429688 235.496094 155.792969 235.953125 L 155.292969 234.957031 C 155.292969 234.957031 155.039062 234.457031 154.792969 233.957031 C 151.261719 227.398438 149.296875 223.984375 149.296875 223.984375 C 146.722656 219.464844 145.003906 216.003906 138.308594 203.535156 C 135.222656 197.800781 134.480469 196.46875 128.820312 186.078125 C 114.558594 159.839844 114.898438 160.21875 105.3125 142.6875 C 100.316406 133.511719 98.03125 129.425781 93.367188 120.746094 C 90.09375 114.660156 89.164062 112.863281 85.871094 106.78125 C 81.453125 98.636719 80.878906 97.710938 76.882812 90.320312 C 76.3125 89.273438 73.824219 84.609375 68.863281 75.328125 C 63.675781 65.617188 62.707031 63.796875 60.875 60.402344 C 58.425781 55.84375 56.722656 52.671875 54.378906 48.433594 C 50.382812 41.070312 49.9375 40.371094 45.390625 31.972656 C 42.277344 26.261719 40.722656 23.410156 38.894531 20.003906 C 36.589844 15.683594 34.128906 11.441406 31.902344 7.070312 C 28.902344 1.65625 27.972656 0.0859375 27.972656 0.0859375 C 27.664062 3.722656 27.664062 7.375 27.972656 11.011719 C 28.082031 12.242188 28.132812 13.222656 28.472656 15.0625 C 29.191406 19.238281 29.585938 22.59375 29.996094 24.902344 C 30.230469 26.207031 31.046875 30.738281 32.457031 36.871094 C 32.902344 38.820312 34.625 46.234375 37.503906 55.882812 C 38.566406 59.449219 39.460938 62.21875 40.472656 65.359375 C 42.328125 71.113281 43.84375 75.527344 44.46875 77.328125 C 45.152344 79.324219 47.691406 86.605469 51.429688 96.28125 C 52.21875 98.332031 55.355469 106.4375 59.917969 117.226562 C 63.1875 124.949219 65.71875 130.558594 68.910156 137.648438 C 72.480469 145.570312 75.289062 151.613281 77.402344 156.101562 C 80.164062 162.03125 82.761719 167.570312 85.894531 174.085938 C 94.667969 192.230469 102.484375 206.800781 106.871094 215.007812 C 108.371094 217.777344 108.199219 217.445312 113.863281 227.898438 C 119.042969 237.507812 120.378906 239.976562 122.875 244.417969 C 124.074219 246.550781 127.371094 252.394531 127.371094 252.394531 C 127.371094 252.394531 122.957031 257.933594 120.878906 262.421875 C 119.066406 266.410156 117.875 270.652344 117.335938 275 C 116.503906 280.753906 116.671875 286.613281 117.835938 292.308594 C 118.882812 297.382812 120.738281 302.253906 123.328125 306.738281 C 126.515625 312.191406 130.777344 316.941406 135.851562 320.703125 C 149.027344 330.160156 166.058594 332.433594 181.257812 326.757812 C 198.253906 320.382812 210.109375 304.871094 211.785156 286.820312 C 212.1875 282.507812 212.019531 278.160156 211.285156 273.890625 M 164.625 312.574219 C 147.855469 312.574219 134.265625 299.003906 134.265625 282.261719 C 134.265625 265.519531 147.855469 251.949219 164.625 251.949219 C 181.390625 251.949219 194.980469 265.519531 194.980469 282.261719 C 194.980469 299.003906 181.386719 312.578125 164.617188 312.574219 Z M 164.625 312.574219 "/>
<path style=" stroke:none;fill-rule:nonzero;fill:rgb(100%,100%,100%);fill-opacity:1;" d="M 118.210938 176.566406 C 118.210938 169.800781 112.714844 164.3125 105.9375 164.3125 C 99.160156 164.3125 93.664062 169.800781 93.664062 176.566406 C 93.664062 183.335938 99.160156 188.820312 105.9375 188.820312 C 112.714844 188.820312 118.210938 183.335938 118.210938 176.566406 Z M 118.210938 176.566406 "/>
<path style=" stroke:none;fill-rule:nonzero;fill:rgb(89.019608%,40.784314%,23.529412%);fill-opacity:1;" d="M 114.25 176.449219 C 114.25 171.890625 110.546875 168.195312 105.984375 168.195312 C 101.417969 168.195312 97.714844 171.890625 97.714844 176.449219 C 97.714844 181.007812 101.417969 184.703125 105.984375 184.703125 C 110.546875 184.703125 114.25 181.007812 114.25 176.449219 Z M 114.25 176.449219 "/>
</g>
</svg>
